#!OML:ASF H:\BabyWalks\Project 1\Capture day 1\Session 1\baby.ASF
:FULLY-SPECIFIED
:DEGREES
583
root 24.0439 17.6325 -1.18288 -174.026 60.7869 -178.39
lowerback 20.5058 -0.0581337 3.74321
upperback 4.62135 1.36896 2.5164
thorax -6.42782 0.816514 0.206734
lowerneck -2.86943 -4.18898 5.0721
upperneck -4.76939 -5.78571 -5.27579
head -1.34118 -2.88977 -2.52704
rclavicle 2.34566e-014 5.00937e-014
rhumerus -47.5375 10.626 -82.9645
rradius 64.583
rwrist -8.17355
rhand -19.9726 -17.5866
rfingers 7.12502
rthumb 6.36629 -47.4709
lclavicle 2.34566e-014 5.00937e-014
lhumerus -58.7922 -4.63633 86.2788
lradius 41.3251
lwrist -6.56217
lhand 19.8141 17.0429
lfingers 7.12502
lthumb 44.3619 40.7895
rfemur -15.907 10.1331 27.4349
rtibia 33.2559
rfoot -17.1392 0.653307
rtoes 9.41814
lfemur -27.2224 4.4639 -8.67222
ltibia 48.5037
lfoot -17.7301 -5.75831
ltoes -14.6452
584
root 24.1541 17.6505 -1.2821 -173.768 61.4698 -178.243
lowerback 20.4353 0.0363306 3.77055
upperback 4.61561 1.48067 2.44452
thorax -6.39165 0.867038 0.086566
lowerneck -2.79299 -4.13397 5.07036
upperneck -4.89532 -5.71002 -5.21806
head -1.3884 -2.85091 -2.50582
rclavicle 2.14687e-014 1.35174e-014
rhumerus -47.7306 11.1511 -83.5185
rradius 66.5709
rwrist -9.07765
rhand -19.3549 -17.656
rfingers 7.12502
rthumb 6.96261 -47.5215
lclavicle 2.14687e-014 1.35174e-014
lhumerus -59.6039 -4.92049 86.5005
lradius 41.7087
lwrist -5.66638
lhand 20.035 17.1642
lfingers 7.12502
lthumb 44.5677 40.832
rfemur -15.3237 10.2627 27.4202
rtibia 32.8626
rfoot -17.1845 1.12859
rtoes 9.42641
lfemur -27.5699 3.92286 -8.68153
ltibia 46.2033
lfoot -17.9064 -5.22533
ltoes -14.9016
585
root 24.2641 17.668 -1.38176 -173.523 62.154 -178.08
lowerback 20.3941 0.128491 3.7995
upperback 4.61449 1.59244 2.37352
thorax -6.36542 0.917972 -0.0336777
lowerneck -2.7184 -4.07439 5.06814
upperneck -4.98827 -5.62802 -5.16878
head -1.4247 -2.80919 -2.4878
rclavicle 3.06128e-014 -1.74931e-014
rhumerus -47.9271 11.6553 -84.0351
rradius 68.4393
rwrist -9.76682
rhand -18.7835 -17.6407
rfingers 7.12502
rthumb 7.51413 -47.4872
lclavicle 3.06128e-014 -1.74931e-014
lhumerus -60.4015 -5.23047 86.7374
lradius 42.1926
lwrist -4.70213
lhand 20.0632 17.2655
lfingers 7.12502
lthumb 44.5939 40.9232
rfemur -14.7081 10.3645 27.4023
rtibia 32.46
rfoot -17.2034 1.63707
rtoes 9.38267
lfemur -27.8426 3.37784 -8.65208
ltibia 43.8852
lfoot -18.0543 -4.69771
ltoes -15.1227
586
root 24.3739 17.6845 -1.48175 -173.285 62.8379 -177.888
lowerback 20.383 0.217224 3.83084
upperback 4.61924 1.70338 2.3064
thorax -6.34837 0.968966 -0.151145
lowerneck -2.64147 -4.01163 5.08463
upperneck -5.0591 -5.5427 -5.15078
head -1.45597 -2.76599 -2.48386
rclavicle -1.19271e-014 -1.43125e-014
rhumerus -48.1212 12.1465 -84.5162
rradius 70.1736
rwrist -10.2823
rhand -18.2733 -17.5215
rfingers 7.12502
rthumb 8.00654 -47.3498
lclavicle -1.19271e-014 -1.43125e-014
lhumerus -61.152 -5.50837 86.9117
lradius 42.6995
lwrist -3.70013
lhand 20.043 17.1525
lfingers 7.12502
lthumb 44.5752 40.8175
rfemur -14.0572 10.4409 27.3861
rtibia 32.047
rfoot -17.1966 2.18025
rtoes 9.31277
lfemur -28.0439 2.82229 -8.57703
ltibia 41.582
lfoot -18.1871 -4.16144
ltoes -15.3107
587
root 24.4838 17.6999 -1.58185 -173.054 63.5232 -177.672
lowerback 20.3974 0.304135 3.85404
upperback 4.62901 1.81295 2.24399
thorax -6.33938 1.01981 -0.258922
lowerneck -2.57173 -3.94311 5.09624
upperneck -5.09552 -5.44957 -5.14006
head -1.47456 -2.71912 -2.48198
rclavicle 2.0276e-014 1.11319e-014
rhumerus -48.3113 12.6267 -84.9642
rradius 71.7659
rwrist -10.6688
rhand -17.8015 -17.3132
rfingers 7.12502
rthumb 8.46194 -47.1237
lclavicle 2.0276e-014 1.11319e-014
lhumerus -61.8696 -5.77992 87.0585
lradius 43.2646
lwrist -2.69301
lhand 19.9673 16.9934
lfingers 7.12502
lthumb 44.5046 40.6855
rfemur -13.3743 10.4985 27.3684
rtibia 31.6259
rfoot -17.1681 2.75136
rtoes 9.19754
lfemur -28.1852 2.25192 -8.46054
ltibia 39.331
lfoot -18.3116 -3.59421
ltoes -15.4517
588
root 24.5941 17.714 -1.68186 -172.83 64.2108 -177.437
lowerback 20.4274 0.392153 3.86699
upperback 4.64476 1.92372 2.18594
thorax -6.33223 1.07182 -0.356769
lowerneck -2.51133 -3.86987 5.10677
upperneck -5.10437 -5.35041 -5.1414
head -1.48268 -2.66939 -2.4844
rclavicle -2.54444e-014 3.02153e-014
rhumerus -48.4952 13.0956 -85.3776
rradius 73.2133
rwrist -10.9653
rhand -17.3761 -17.0396
rfingers 7.12502
rthumb 8.87245 -46.8331
lclavicle -2.54444e-014 3.02153e-014
lhumerus -62.5252 -6.02663 87.1599
lradius 43.8365
lwrist -1.75858
lhand 19.8491 16.7742
lfingers 7.12502
lthumb 44.3945 40.5083
rfemur -12.6703 10.5399 27.347
rtibia 31.2053
rfoot -17.1228 3.34655
rtoes 9.0685
lfemur -28.2829 1.66396 -8.30873
ltibia 37.168
lfoot -18.4345 -2.96314
ltoes -15.6014
589
root 24.7049 17.7261 -1.78158 -172.596 64.8993 -177.171
lowerback 20.4637 0.480885 3.86747
upperback 4.66597 2.03419 2.1345
thorax -6.32284 1.12432 -0.440465
lowerneck -2.45315 -3.79458 5.12684
upperneck -5.09687 -5.24927 -5.16633
head -1.48618 -2.61868 -2.49664
rclavicle -7.55382e-014 -1.98785e-014
rhumerus -48.6783 13.5599 -85.7615
rradius 74.5194
rwrist -11.2007
rhand -16.9961 -16.7438
rfingers 7.12502
rthumb 9.23911 -46.5214
lclavicle -7.55382e-014 -1.98785e-014
lhumerus -63.1233 -6.2599 87.2405
lradius 44.4323
lwrist -0.92606
lhand 19.6803 16.6307
lfingers 7.12502
lthumb 44.2372 40.4246
rfemur -11.954 10.5704 27.3279
rtibia 30.7977
rfoot -17.0715 3.95385
rtoes 8.92929
lfemur -28.3494 1.05953 -8.11986
ltibia 35.1295
lfoot -18.5488 -2.24725
ltoes -15.7865
590
root 24.8166 17.7357 -1.88088 -172.349 65.5914 -176.879
lowerback 20.4934 0.573202 3.84994
upperback 4.69087 2.1457 2.08839
thorax -6.30657 1.17789 -0.508338
lowerneck -2.40491 -3.71661 5.13736
upperneck -5.06739 -5.14438 -5.19146
head -1.48027 -2.56619 -2.50756
rclavicle -1.55052e-014 4.05521e-014
rhumerus -48.8628 14.0096 -86.115
rradius 75.6881
rwrist -11.3883
rhand -16.6516 -16.4599
rfingers 7.12502
rthumb 9.57148 -46.2225
lclavicle -1.55052e-014 4.05521e-014
lhumerus -63.6644 -6.49669 87.3134
lradius 45.0473
lwrist -0.195628
lhand 19.4523 16.5778
lfingers 7.12502
lthumb 44.0245 40.4515
rfemur -11.242 10.5917 27.3074
rtibia 30.4162
rfoot -17.0189 4.57078
rtoes 8.81977
lfemur -28.4035 0.450738 -7.90501
ltibia 33.2486
lfoot -18.6358 -1.43435
ltoes -16.011
591
root 24.9293 17.7428 -1.97957 -172.076 66.2863 -176.56
lowerback 20.5042 0.671672 3.82134
upperback 4.71806 2.26171 2.04331
thorax -6.27805 1.23403 -0.569435
lowerneck -2.36156 -3.6393 5.15238
upperneck -5.03105 -5.04071 -5.22478
head -1.47175 -2.51436 -2.52217
rclavicle -3.45885e-014 2.54444e-014
rhumerus -49.0525 14.4216 -86.4408
rradius 76.7219
rwrist -11.534
rhand -16.3478 -16.22
rfingers 7.12502
rthumb 9.86463 -45.969
lclavicle -3.45885e-014 2.54444e-014
lhumerus -64.1288 -6.72991 87.3446
lradius 45.6405
lwrist 0.438503
lhand 19.207 16.5158
lfingers 7.12502
lthumb 43.7957 40.4745
rfemur -10.5494 10.6065 27.2866
rtibia 30.0728
rfoot -16.9722 5.18263
rtoes 8.66843
lfemur -28.4598 -0.152483 -7.66966
ltibia 31.5576
lfoot -18.6915 -0.527509
ltoes -16.1668
592
root 25.0432 17.7474 -2.07767 -171.765 66.9839 -176.207
lowerback 20.4878 0.772239 3.779
upperback 4.74551 2.3756 1.9982
thorax -6.23537 1.28945 -0.621407
lowerneck -2.32105 -3.55868 5.15592
upperneck -4.99032 -4.93197 -5.24375
head -1.46013 -2.46003 -2.53
rclavicle -3.45885e-014 4.53229e-014
rhumerus -49.2493 14.8007 -86.7453
rradius 77.6238
rwrist -11.6448
rhand -16.078 -16.0448
rfingers 7.12502
rthumb 10.1249 -45.7812
lclavicle -3.45885e-014 4.53229e-014
lhumerus -64.5213 -6.96401 87.3503
lradius 46.2196
lwrist 0.994278
lhand 18.9142 16.5413
lfingers 7.12502
lthumb 43.5223 40.6001
rfemur -9.88955 10.6178 27.266
rtibia 29.7811
rfoot -16.9384 5.78713
rtoes 8.50456
lfemur -28.5285 -0.724767 -7.4257
ltibia 30.0767
lfoot -18.713 0.453404
ltoes -16.2174
593
root 25.1582 17.7489 -2.17518 -171.379 67.6796 -175.785
lowerback 20.4377 0.873784 3.73791
upperback 4.77296 2.48903 1.95552
thorax -6.17501 1.34486 -0.670195
lowerneck -2.28842 -3.4761 5.14777
upperneck -4.94669 -4.82004 -5.2452
head -1.44504 -2.40423 -2.53
rclavicle 1.11319e-014 2.62396e-014
rhumerus -49.4558 15.1352 -87.0267
rradius 78.3966
rwrist -11.7319
rhand -15.8672 -15.9337
rfingers 7.12502
rthumb 10.3283 -45.6601
lclavicle 1.11319e-014 2.62396e-014
lhumerus -64.8392 -7.20958 87.3358
lradius 46.7875
lwrist 1.48549
lhand 18.576 16.6635
lfingers 7.12502
lthumb 43.2063 40.8361
rfemur -9.27147 10.6216 27.259
rtibia 29.5498
rfoot -16.9213 6.38322
rtoes 8.32966
lfemur -28.6176 -1.2267 -7.17609
ltibia 28.8184
lfoot -18.6815 1.46151
ltoes -16.181
